PathFileType	4	(X/Y/Z)	markers_results_mono.trc
DataRate	CameraRate	NumFrames	NumMarkers	Units	OrigDataRate	OrigDataStartFrame	OrigNumFrames
12.500000	12.500000	10	22	m	12.500000	1131	3015
Frame#	Time	Nose			Neck			LShoulder			RShoulder			LElbow			RElbow			LWrist			RWrist			LHip			RHip			LKnee			RKnee			LAnkle			RAnkle			LEye			REye			LThumb			LIndex			LPinky			RThumb			RIndex			RPinky
		X1	Y1	Z1	X2	Y2	Z2	X3	Y3	Z3	X4	Y4	Z4	X5	Y5	Z5	X6	Y6	Z6	X7	Y7	Z7	X8	Y8	Z8	X9	Y9	Z9	X10	Y10	Z10	X11	Y11	Z11	X12	Y12	Z12	X13	Y13	Z13	X14	Y14	Z14	X15	Y15	Z15	X16	Y16	Z16	X17	Y17	Z17	X18	Y18	Z18	X19	Y19	Z19	X20	Y20	Z20	X21	Y21	Z21	X22	Y22	Z22

1131	90.400000	0.665030	-1.090078	0.139430	0.441442	-0.930701	0.062966	0.460006	-0.938578	-0.088200	0.422878	-0.922824	0.214131	0.186755	-0.762333	-0.085031	0.185414	-0.736934	0.273705	0.137312	-0.766416	0.064756	0.341803	-0.719017	0.151465	-0.058790	-0.603563	-0.075754	-0.002944	-0.598140	0.088656	-0.084152	-0.485832	-0.131552	0.148473	-0.412584	0.089304	-0.382377	-0.051352	-0.202100	-0.040834	0.019627	-0.281350	0.665030	-1.126022	0.119460	0.665030	-1.112044	0.175374	0.137312	-0.794677	0.157848	0.137312	-0.784702	0.179459	0.137312	-0.753118	0.147874	0.341803	-0.771965	0.065423	0.341803	-0.763141	0.049980	0.341803	-0.703574	0.076455
1132	90.480000	0.644078	-1.138257	0.177232	0.424006	-0.969655	0.086270	0.446852	-0.982283	-0.051951	0.401159	-0.957028	0.224491	0.179454	-0.802370	-0.015547	0.165582	-0.761704	0.296652	0.135681	-0.810499	0.138458	0.328241	-0.751836	0.187772	-0.051302	-0.626230	-0.068137	-0.008971	-0.610259	0.078317	-0.070725	-0.488352	-0.142996	0.131956	-0.394962	0.015373	-0.356931	-0.033679	-0.296291	-0.041434	0.021743	-0.295817	0.644078	-1.169354	0.158940	0.644078	-1.156549	0.208330	0.135681	-0.841295	0.232557	0.135681	-0.829319	0.254799	0.135681	-0.795101	0.224003	0.328241	-0.799756	0.109183	0.328241	-0.790172	0.097681	0.328241	-0.740335	0.120683
1133	90.560000	0.590967	-1.218838	0.127585	0.402159	-1.046224	0.067614	0.420233	-1.056563	-0.067055	0.384086	-1.035885	0.202282	0.190760	-0.867177	0.011763	0.148278	-0.810838	0.300887	0.162451	-0.861983	0.130621	0.321858	-0.794760	0.182826	-0.049825	-0.641276	-0.066940	-0.005667	-0.621399	0.070836	-0.069089	-0.430495	-0.157227	0.128692	-0.331545	-0.027693	-0.350116	0.017699	-0.233466	0.014825	0.182680	-0.359354	0.590967	-1.248960	0.109866	0.590967	-1.236557	0.157707	0.162451	-0.885741	0.204534	0.162451	-0.873862	0.221692	0.162451	-0.850104	0.196614	0.321858	-0.846431	0.092964	0.321858	-0.837444	0.079485	0.321858	-0.779034	0.108690
1134	90.640000	0.310661	-1.348822	-0.313208	0.257513	-1.230307	-0.160862	0.192063	-1.182722	-0.314209	0.322963	-1.277893	-0.007515	0.036661	-0.939547	-0.285450	0.195752	-0.989116	0.135130	0.058733	-0.892159	-0.311387	0.305185	-0.844760	-0.093994	-0.061154	-0.630490	-0.081150	0.059414	-0.651238	0.090824	-0.192824	-0.226443	-0.042072	0.080932	-0.228467	0.170395	-0.371819	0.195264	-0.001317	-0.076154	0.303489	0.254547	0.310661	-1.383837	-0.345305	0.310661	-1.395508	-0.278195	0.058733	-0.905093	-0.302764	0.058733	-0.887847	-0.287673	0.058733	-0.879224	-0.294141	0.305185	-0.865460	-0.269950	0.305185	-0.813709	-0.287201	0.305185	-0.761957	-0.221648
1135	90.720000	0.319798	-1.336406	-0.368799	0.256653	-1.228161	-0.193872	0.183059	-1.187800	-0.356816	0.330246	-1.268522	-0.030929	-0.028187	-0.960255	-0.314509	0.195669	-0.990995	0.154525	0.069400	-0.874576	-0.357671	0.306640	-0.853139	-0.080040	-0.065310	-0.634898	-0.085467	0.078796	-0.664415	0.102119	-0.232616	-0.242910	-0.026590	0.064486	-0.234950	0.160933	-0.459410	0.134266	0.062550	-0.155936	0.212614	0.290078	0.319798	-1.368667	-0.424521	0.319798	-1.395062	-0.333605	0.069400	-0.958738	-0.409104	0.069400	-0.916657	-0.395077	0.069400	-0.860549	-0.404428	0.306640	-0.885080	-0.271689	0.306640	-0.828296	-0.289434	0.306640	-0.767962	-0.225551
1136	90.800000	0.318618	-1.350547	-0.356077	0.253739	-1.235556	-0.175452	0.174933	-1.207061	-0.336982	0.332545	-1.264051	-0.013923	-0.044987	-0.982419	-0.300279	0.192406	-0.988601	0.170487	0.069003	-0.891545	-0.356614	0.304073	-0.867727	-0.063527	-0.062582	-0.653694	-0.085823	0.079055	-0.675668	0.103680	-0.226620	-0.281209	-0.029877	0.056833	-0.263363	0.142288	-0.464804	0.080948	0.070858	-0.170687	0.163379	0.259159	0.318618	-1.390445	-0.386768	0.318618	-1.408859	-0.319248	0.069003	-0.929111	-0.362393	0.069003	-0.900214	-0.356614	0.069003	-0.848200	-0.368172	0.304073	-0.915905	-0.225268	0.304073	-0.805784	-0.232151	0.304073	-0.761047	-0.183972
1137	90.880000	0.294192	-1.384639	-0.343195	0.237917	-1.259938	-0.154815	0.156581	-1.237526	-0.312656	0.319253	-1.282350	0.003026	-0.069085	-1.013724	-0.280033	0.186513	-1.001119	0.179007	0.053804	-0.921102	-0.354816	0.301271	-0.888237	-0.060824	-0.060731	-0.668936	-0.087372	0.079090	-0.683309	0.103317	-0.226375	-0.294494	-0.031039	0.043906	-0.270932	0.141641	-0.457914	0.063992	0.068536	-0.187275	0.143770	0.271242	0.294192	-1.433889	-0.364742	0.294192	-1.440045	-0.303180	0.053804	-1.411820	-0.320013	0.053804	-0.914141	-0.299131	0.053804	-0.861937	-0.292171	0.301271	-0.918036	-0.189954	0.301271	-0.841882	-0.193265	0.301271	-0.798839	-0.163466
1138	90.960000	0.295890	-1.405148	-0.310091	0.234326	-1.268399	-0.130251	0.151503	-1.254845	-0.285457	0.317149	-1.281954	0.024955	-0.091177	-1.030656	-0.248127	0.183637	-0.999978	0.192690	0.047857	-0.939004	-0.328330	0.299329	-0.903014	-0.051866	-0.058076	-0.685905	-0.087823	0.078308	-0.691779	0.104413	-0.226481	-0.328194	-0.036706	0.036044	-0.292562	0.137274	-0.470525	0.016666	0.072985	-0.198584	0.107610	0.245333	0.295890	-1.455843	-0.326990	0.295890	-1.462603	-0.262776	0.047857	-0.952637	-0.369228	0.047857	-0.921963	-0.359004	0.047857	-0.881066	-0.307882	0.299329	-0.922818	-0.193793	0.299329	-0.893112	-0.216897	0.299329	-0.843603	-0.157486
1139	91.040000	0.274980	-1.432873	-0.297039	0.219752	-1.286030	-0.113645	0.137050	-1.274880	-0.264516	0.302455	-1.297181	0.037226	-0.110995	-1.050257	-0.220679	0.180575	-1.009352	0.195109	0.032044	-0.959228	-0.319267	0.300223	-0.919284	-0.056514	-0.056332	-0.697983	-0.088851	0.076518	-0.697459	0.103204	-0.226824	-0.334724	-0.049467	0.029176	-0.295617	0.140352	-0.465097	0.010001	0.056734	-0.206882	0.098745	0.249790	0.274980	-1.482157	-0.313467	0.274980	-1.492014	-0.244469	0.032044	-0.955841	-0.383612	0.032044	-0.921975	-0.376839	0.032044	-0.877950	-0.332814	0.300223	-0.939400	-0.193978	0.300223	-0.915931	-0.210742	0.300223	-0.855581	-0.153745
1140	91.120000	0.281640	-1.440518	-0.279046	0.219927	-1.286818	-0.101558	0.135914	-1.279853	-0.250705	0.303940	-1.293783	0.047589	-0.119791	-1.054553	-0.196095	0.184092	-1.003569	0.196862	0.027665	-0.967077	-0.297966	0.303287	-0.926363	-0.062174	-0.053338	-0.709293	-0.089446	0.074518	-0.703691	0.105202	-0.226479	-0.359478	-0.065994	0.021725	-0.314042	0.142882	-0.479056	-0.026214	0.050481	-0.216726	0.070893	0.228557	0.281640	-1.488971	-0.296350	0.281640	-1.499353	-0.227133	0.027665	-0.998394	-0.405838	0.027665	-0.932279	-0.402358	0.027665	-0.883563	-0.329284	0.303287	-0.955489	-0.207805	0.303287	-0.929599	-0.240167	0.303287	-0.874583	-0.172206
